Patient5_TMGait_0pt45_1_right_08_EMG.mot
version=1
nRows=29
nColumns=33
inDegrees=no
endheader
time	1LAddLong	2LGlutMax	3LGlutMed	4LIliopsoas	5LSemiMemb	6LBicFemLong	7LRecFem	8LTensFascLat	9LVastMed	10LVasLat	11LGasMed	12lGasLat	13LTibAnt	14LPeroneusLong	15LSol	16LTibPost	17RAddLong	18RGlutMax	19RGlutMed	20RIliopsoas	21RSemiMemb	22RBicFemLong	23RRecFem	24RTensFascLat	25RVastMed	26RVasLat	27RGasMed	28RGasLat	29RTibAnt	30RPeroneusLong	31RSol	32RTibPost
14.07	0.018158	0.011902	0.15717	0.000763	-0.023956	0.027313	-0.00473	0.24292	-0.02594	0.008087	-0.098114	-0.02121	-0.056763	-0.038605	0.015717	-0.075836	-0.019684	-0.001984	-0.054474	0.065002	0.11597	-0.009308	-0.01709	-0.058594	-0.061035	0.19959	0.001373	0.012054	-0.005798	-0.041351	0.039215	-0.009766
14.071	0.02243	0.015411	0.1149	0.027466	0.017242	0.007629	-0.001526	0.046082	-0.027771	-0.011597	-0.10117	-0.026398	0.097046	-0.048218	-0.047607	-0.034332	-0.022278	-0.000153	-0.007629	-0.070343	0.12344	-0.010529	-0.018616	-0.055389	-0.03952	0.13077	-0.006714	0.006409	-0.003204	-0.045929	0.023346	-0.013428
14.072	0.022736	0.006866	0.030212	0.000305	-0.03891	-0.013123	0.000916	-0.10208	-0.044556	0.000153	-0.067291	-0.028839	0.20584	-0.042267	-0.11627	0.040131	-0.010681	-0.000763	-0.009308	-0.12787	0.09964	-0.023041	-0.014954	0.003357	-0.021973	-0.2655	0.001526	-0.004883	-0.00946	-0.065308	0.001526	-0.001221
14.073	0.012207	0.002594	-0.075378	0.018005	-0.03479	-0.050812	0.004425	-0.22964	-0.058746	-0.003357	-0.20493	-0.012817	0.14572	0.00473	-0.1329	-0.050812	-0.005951	0.003204	-0.002594	0.007629	0.090942	-0.019226	-0.02182	0.042419	-0.025787	-0.35523	0.001068	-0.014191	-0.027924	-0.078888	0.001526	0.011292
14.074	0.006561	-0.016174	-0.22781	-0.009308	-0.04425	-0.016632	-0.005035	-0.37537	-0.06958	0.004272	-0.001831	-0.010376	0.0383	0.045929	-0.05188	-0.13809	0.004425	0.002289	-0.01709	0.020447	0.074158	-0.016785	-0.021057	-0.025787	-0.020447	-0.15503	0.006256	-0.018768	-0.043488	-0.084229	0.005188	0.011902
14.075	-0.006561	-0.020294	-0.24597	-0.004578	-0.018768	0.008698	-0.003204	-0.3363	-0.080566	0.037537	0.121	0.016479	-0.000763	0.088806	-0.060425	0.091553	0.003052	-0.000153	0.007629	0.017395	0.063477	-0.020142	-0.0177	-0.058899	-0.019836	-0.059967	0.011139	-0.026245	-0.047302	-0.088806	0.013275	0.02182
14.076	-0.012054	-0.014954	-0.177	-0.009613	-0.010834	0.011749	-0.002899	-0.22217	-0.054169	0.011444	0.068665	0.022888	-0.010681	0.06958	-0.11261	-0.022278	0.000916	0.001984	-0.001526	0.037689	0.04303	-0.01236	-0.011139	-0.048523	-0.029297	-0.045776	0.011749	-0.021667	-0.044861	-0.08606	0.031738	-0.00412
14.077	-0.001373	-0.027924	-0.017548	-0.034485	0.011292	0.016785	-0.00885	0.016785	-0.011902	0.021973	0.1416	0.014954	-0.055847	0.051422	-0.16174	0.10574	0.00412	0.000305	-0.013275	0.11917	0.03891	-0.010376	-0.005798	-0.025482	-0.033875	-0.010223	0.004272	-0.00824	-0.039063	-0.06958	0.009155	-0.005341
14.078	0.013123	-0.017853	0.1297	-0.004883	0.008545	-0.02243	-0.013428	0.15472	-0.012665	0.041199	0.12772	0.026398	-0.089264	0.023346	-0.12482	0.099182	0.008698	0.001373	-0.037231	-0.015564	0.026855	-0.01236	0.002594	0.047302	-0.030823	0.002441	0.004578	0.00824	-0.015869	-0.055389	-0.010071	-0.008545
14.079	0.007172	-0.007935	0.26093	0.005188	0.018921	-0.036926	-0.00824	0.3122	-0.024414	0.056	0.059814	0.035706	-0.13641	-0.017242	-0.079041	-0.080414	0.007782	0.002899	-0.037994	-0.091858	0.041351	-0.008087	-0.000305	0.16708	-0.018921	0.042725	0.003357	-0.004425	0.043335	-0.037079	-0.019226	-0.009308
14.08	0.006104	-0.000763	0.31448	-0.006256	0.0177	-0.045929	-0.009003	0.56168	-0.050354	0.06073	0.057983	0.036163	-0.15579	-0.023956	-0.045319	-0.13596	0.013885	0.000153	-0.085907	0.057526	0.047913	-0.001984	0.003815	0.25513	-0.00412	0.052795	0.002289	0.004272	0.011902	-0.0177	-0.017853	0.056152
14.081	0.011444	0.014496	0.23911	-0.001221	0.040741	-0.062714	-0.01236	0.58838	-0.054016	0.058441	0.010071	0.030518	-0.15655	-0.005493	0.00824	0.08667	0.016937	-0.000458	-0.098877	0.004272	0.053253	-0.003815	0.000305	0.25589	0.000305	0.023193	0.010071	0.00473	-0.017395	-0.010071	-0.011902	0.007629
14.082	-0.003662	0.027466	0.01297	-0.001526	0.071106	-0.054321	-0.015411	0.29755	-0.045929	0.048828	-0.002747	0.002747	-0.11612	-0.003662	0.024567	0.10941	0.00824	-0.000458	-0.062408	-0.03479	0.066071	-0.010223	-0.002594	0.22781	-0.002289	0.00946	-0.001526	0.005646	-0.012512	-0.021362	0.006561	-0.034485
14.083	-0.005035	0.034332	-0.048065	-0.014496	0.077515	-0.043945	-0.019989	0.11032	-0.003815	0.078278	0.002136	-0.016479	-0.007935	-0.00473	-0.023499	0.20676	0.001221	-0.000916	-0.069733	0.038147	0.074768	-0.01236	-0.007935	0.14389	0.015106	0.004883	-0.002441	-0.001526	-0.003204	-0.032806	0.009155	-0.015259
14.084	-0.006561	0.040131	-0.11078	-0.003967	0.075684	0.062103	-0.034027	-0.001526	0.009918	0.091705	0.036469	-0.015869	0.13107	0.002136	-0.055084	0.023193	0.005188	-0.007019	-0.029144	0.015717	0.067749	-0.014648	-0.009308	0.14511	0.022125	0.008698	-0.000458	0.003204	-0.001068	-0.028534	0.005035	0.061951
14.085	-0.006866	0.0354	-0.25345	0.006409	0.13733	0.073395	-0.014038	-0.23651	-0.015564	0.079041	0.053406	-0.020599	0.30167	-0.003967	-0.093842	-0.10101	0.002594	-0.001221	0.015106	-0.22278	0.06546	-0.005493	-0.005188	0.10498	0.032806	0.011292	0.000763	-0.002136	0.000305	-0.024414	0.003967	0.069885
14.086	-0.007172	0.02243	-0.31464	0.004425	0.095062	0.021057	0.000305	-0.28351	-0.010834	0.026855	0.044556	-0.003204	0.23025	0.022736	-0.051575	0.13214	0.008698	0.00061	-0.015411	0.011139	0.086365	-0.006409	-0.010223	0.11169	0.039673	0.006409	-0.001831	-0.009003	-0.009003	-0.020599	0.000153	-0.056305
14.087	-0.005798	0.023346	-0.2449	0.00946	-0.035095	0.020599	0.003815	-0.25894	0.001526	-0.053406	0.024414	0.008087	0.15243	0.020447	0.018463	-0.10544	0.007172	0	0.003204	-0.050049	0.078125	-0.016022	-0.013885	0.093536	0.041656	0.010529	0.001831	-0.006561	-0.008698	-0.014648	-0.007935	-0.020447
14.088	-0.00412	0.015106	-0.11231	0.017242	-0.053101	0.014191	-0.00412	-0.099945	0.011292	-0.028992	0.013275	0.009918	0.075226	0.014801	0.026703	0.02243	-0.000153	-0.001678	-0.034943	0.002899	0.094452	-0.018005	-0.010223	0.052338	0.031281	0.016937	0.002899	-0.000916	-0.008545	-0.012665	-0.010071	-0.005035
14.089	-0.000916	0.020142	0.000153	0.025177	-0.035553	0.002899	-0.006866	0.014343	0.027313	-0.006714	0.00824	0.028992	-0.031281	0.011749	0.040894	0.006409	-0.015869	-0.000458	-0.078278	0.13016	0.084686	-0.030365	-0.002594	0.007477	0.034637	0.007477	0.001984	0.014496	-0.019989	-0.015869	-0.011139	-0.002747
14.09	-0.005493	0.02182	0.11078	0.018158	-0.042877	-0.005341	-0.010071	0.15549	0.041656	-0.011292	-0.014496	0.007477	-0.096588	-0.002594	0.053711	0.057373	-0.002441	-0.00412	-0.04715	0.00885	0.10025	-0.030518	0.004578	-0.030823	0.023651	0.011597	0.002289	0.001221	-0.029144	-0.007629	-0.00824	-0.005798
14.091	-0.012054	0.022278	0.1828	0.019531	-0.00946	0.013123	-0.015106	0.2211	0.035706	-0.022736	-0.015564	-0.00473	-0.16327	-0.012512	0.010529	0.083008	0.014801	0.000153	-0.081329	0.058594	0.061035	-0.021362	0.002441	-0.049133	0.00885	0.026398	0.00412	-0.00412	-0.025177	-0.025787	0.003815	0.022583
14.092	-0.003967	0.008545	0.17975	0.018158	0.009766	0.010681	-0.006866	0.10101	0.015869	-0.022736	-0.015869	-0.00824	-0.16907	0.019379	-0.038452	0.12222	0.018463	-0.003204	-0.083923	-0.077972	0.07019	-0.039063	0.004425	-0.068054	0.006256	0.024567	0.002441	0.004272	-0.023651	-0.023346	0.001068	0.005188
14.093	-0.003357	0.006256	0.21347	0.019684	-0.039825	0.013275	0.000305	0.03067	0.016022	-0.013123	0.000916	-0.02121	-0.1535	0.046387	-0.050507	0.00351	0.011597	-0.000916	-0.093384	-0.03952	0.08255	-0.033417	0.00061	-0.09079	0.011902	0.02533	-0.00061	0.022125	-0.024872	-0.017853	-0.00946	0.022736
14.094	-0.007477	0.027924	0.17395	0.00824	-0.012665	-0.011902	0.006714	0.003967	0.051575	-0.007019	-0.001068	-0.011902	0.00946	0.077362	0.009918	-0.024414	-0.009003	0.00061	-0.043793	0.070496	0.082245	-0.030212	-0.013733	-0.13473	0.021667	0.016937	-0.001373	-0.004425	-0.013885	-0.023956	-0.000763	0.016479
14.095	-0.006866	0.040894	0.13031	0.028992	-0.018921	-0.022583	0.000458	-0.0383	0.074005	-0.016327	-0.02243	0.010986	0.000763	0.088196	0.088959	0.046692	-0.003662	-0.000458	-0.038147	-0.074158	0.099792	-0.026703	-0.019379	-0.16647	0.038452	0.013275	0.002594	-0.015259	0.007935	-0.038147	0.001068	0.006561
14.096	-0.008087	0.027008	0.11185	0.015411	-0.024109	-0.032349	0	0.070953	0.070648	-0.009918	-0.059662	0.016632	-0.070496	0.052032	0.16479	-0.078735	-0.004578	-0.003357	-0.060272	0.063477	0.13199	-0.027618	-0.023956	-0.16968	0.037537	0.014191	0.015564	-0.023193	0.014038	-0.033569	0.002747	-0.00885
14.097	0.002289	0.019226	0.090027	0	0.002136	-0.038757	0.016479	0.063171	0.076599	-0.009155	-0.093994	0.028992	-0.13367	-0.014343	0.159	-0.020905	0.000458	-0.001221	-0.019989	0.13977	0.13779	-0.024109	-0.033722	-0.15396	0.032196	0.012207	0.005951	-0.000153	0.012054	-0.024719	-0.011139	-0.01709
14.098	0.001984	0.001984	0.030823	0.008087	0.081024	-0.025024	-0.001678	-0.06012	0.055542	-0.006104	-0.036469	0.03479	-0.15488	-0.049133	0.26642	-0.062714	0.001526	-0.003052	0.044403	-0.11551	0.11383	-0.010071	-0.033722	-0.13168	0.025482	0.010071	0.006256	0.00946	-0.042419	-0.023651	-0.006714	-0.028076
